<?xml version="1.0" encoding="UTF-8"?>
<svg id="Layer_1" xmlns="http://www.w3.org/2000/svg" version="1.1" xmlns:xlink="http://www.w3.org/1999/xlink" viewBox="0 0 512 512">
  <!-- Generator: Adobe Illustrator 29.7.1, SVG Export Plug-In . SVG Version: 2.1.1 Build 8)  -->
  <defs>
    <style>
      .st0 {
        fill: #21af20;
      }

      .st1 {
        fill: #fff;
      }

      .st2 {
        fill: #f3b318;
      }

      .st3 {
        fill: #7ed118;
      }

      .st4 {
        fill: #229fe1;
      }

      .st5 {
        fill: #df39a5;
      }

      .st6 {
        fill: #eb8118;
      }

      .st7 {
        fill: #b8ff1f;
      }

      .st8 {
        fill: #1c76c3;
      }

      .st9 {
        fill: #16dcdb;
      }

      .st10 {
        fill: #a632b5;
      }

      .st11 {
        fill: #f2f31e;
      }

      .st12 {
        fill: url(#linear-gradient);
      }

      .st13 {
        fill: #e6511d;
      }
    </style>
    <linearGradient id="linear-gradient" x1="256" y1="0" x2="256" y2="512" gradientUnits="userSpaceOnUse">
      <stop offset="0" stop-color="#116098"/>
      <stop offset="1" stop-color="#234b73"/>
    </linearGradient>
  </defs>
  <rect class="st12" width="512" height="512"/>
  <g id="layer1">
    <path class="st1" d="M307.64,85.47c-72.28,0-130.87,58.74-130.87,131.19v184.29c0,14.29,11.51,25.79,25.8,25.79s25.79-11.5,25.79-25.79v-79.93c22,16.82,49.47,26.83,79.28,26.83,72.28,0,130.87-58.74,130.87-131.19s-58.59-131.19-130.87-131.19ZM307.28,270.29c-29.35,0-53.14-23.85-53.15-53.27,0-29.42,23.79-53.28,53.15-53.27,29.35,0,53.14,23.85,53.14,53.27,0,29.42-23.79,53.27-53.14,53.27Z"/>
    <path id="path42" class="st0" d="M280.16,273.32l-29.49,51.08c15.48,8.24,32.94,13.23,51.49,14.05v-59.16c-7.83-.64-15.26-2.71-22-5.98h0Z"/>
    <path id="path41" class="st9" d="M334.44,273.29c-7,3.4-14.74,5.52-22.9,6.07v59.13c18.93-.6,36.76-5.53,52.55-13.84l-29.65-51.36Z"/>
    <path id="path40" class="st3" d="M256.38,253.1l-51.14,29.34c9.59,14.97,22.34,27.69,37.33,37.23l29.49-51.07c-6.1-4.19-11.4-9.45-15.68-15.49Z"/>
    <path id="path39" class="st4" d="M358.34,252.87c-4.29,6.13-9.64,11.45-15.8,15.69l29.68,51.41c15.21-9.57,28.14-22.42,37.83-37.56l-51.71-29.54Z"/>
    <path id="path38" class="st8" d="M369.39,222.39c-.62,7.34-2.51,14.32-5.45,20.72l51.74,29.56c7.85-15.18,12.62-32.21,13.46-50.28h-59.74Z"/>
    <path id="path37" class="st7" d="M186.14,222.39c.83,18.09,5.62,35.13,13.48,50.31l51.12-29.33c-3.01-6.47-4.94-13.54-5.57-20.98h-59.03Z"/>
    <path id="path36" class="st11" d="M198.99,161.85c-7.78,15.46-12.36,32.8-12.9,51.16h58.98c.49-7.72,2.38-15.05,5.41-21.75l-51.49-29.41Z"/>
    <path id="path35" class="st10" d="M416.1,161.48l-51.99,29.83c3.02,6.69,4.9,14.01,5.39,21.71h59.7c-.54-18.51-5.2-35.98-13.09-51.53Z"/>
    <path id="path34" class="st2" d="M242.36,113.79c-15.28,9.77-28.24,22.85-37.86,38.25l51.51,29.43c4.35-6.3,9.83-11.75,16.14-16.08l-29.79-51.6Z"/>
    <path id="path33" class="st5" d="M372.45,113.49l-29.99,51.93c6.31,4.33,11.78,9.79,16.12,16.09l51.97-29.82c-9.7-15.41-22.74-28.48-38.11-38.2h0Z"/>
    <path id="path32" class="st6" d="M302.17,94.86c-18.64.83-36.18,5.86-51.72,14.17l29.81,51.64c6.72-3.24,14.11-5.3,21.91-5.93v-59.88Z"/>
    <path id="path30" class="st13" d="M311.55,94.82v59.86c8.13.55,15.83,2.65,22.81,6.02l29.97-51.92c-15.85-8.39-33.76-13.35-52.78-13.96h0Z"/>
    <path class="st1" d="M113.32,176c-11.4,0-20.64,8.22-20.64,18.36,0,10.14,9.24,18.36,20.64,18.36s20.64-8.22,20.64-18.36c0-10.14-9.24-18.36-20.64-18.36ZM113.32,233.73c-7.95,0-14.35,6.43-14.35,14.41v163.57c0,7.98,6.4,14.41,14.35,14.41s14.4-6.43,14.4-14.41v-163.57c0-7.98-6.45-14.41-14.4-14.41Z"/>
  </g>
</svg>